<svg height="512pt" viewBox="-9 0 512 512.01194" width="512pt" xmlns="http://www.w3.org/2000/svg"><path d="m428.78125 108.511719c-12.292969-40.605469-55.175781-63.558594-95.78125-51.265625-7.03125 2.128906-13.71875 5.253906-19.859375 9.28125-8.226563-44.203125-50.726563-73.363282-94.925781-65.136719-38.429688 7.148437-66.351563 40.609375-66.511719 79.699219v27.859375c-34.570313 5.261719-58.324219 37.554687-53.0625 72.125 4.683594 30.746093 31.007813 53.539062 62.109375 53.78125h262.304688c34.96875-.175781 63.175781-28.660157 63.003906-63.628907-.164063-32.507812-24.917969-59.613281-57.277344-62.714843zm0 0" fill="#b3e4e8"/><path d="m111 343.394531c0 14.988281-12.148438 27.136719-27.132812 27.136719-14.988282 0-27.136719-12.148438-27.136719-27.136719 0-14.984375 12.148437-27.132812 27.136719-27.132812 14.984374 0 27.132812 12.148437 27.132812 27.132812zm0 0" fill="#ebebeb"/><path d="m.0078125 428.050781 45.2304685-54.257812 13.902344 11.585937-45.234375 54.261719zm0 0" fill="#b3e4e8"/><path d="m105.542969 301.421875 30.15625-36.175781 13.902343 11.589844-30.15625 36.175781zm0 0" fill="#8aced8"/><path d="m33.175781 485.34375 30.15625-36.175781 13.902344 11.589843-30.15625 36.175782zm0 0" fill="#a8d6da"/><path d="m205.03125 482.332031 30.15625-36.175781 13.902344 11.589844-30.15625 36.175781zm0 0" fill="#b3e4e8"/><path d="m81.410156 428.046875 135.703125-162.785156 13.902344 11.589843-135.703125 162.785157zm0 0" fill="#b3e4e8"/><path d="m253.273438 428.058594 135.703124-162.789063 13.902344 11.589844-135.703125 162.789063zm0 0" fill="#a8d6da"/><path d="m219.542969 415.757812c0 14.984376-12.148438 27.132813-27.136719 27.132813-14.984375 0-27.136719-12.148437-27.136719-27.132813 0-14.988281 12.152344-27.136718 27.136719-27.136718 14.988281 0 27.136719 12.148437 27.136719 27.136718zm0 0" fill="#eaeae8"/><path d="m108.550781 500.421875 45.230469-54.257813 13.902344 11.589844-45.230469 54.257813zm0 0" fill="#8aced8"/><path d="m214.214844 373.675781 93.449218-108.558593 13.710938 11.800781-93.449219 108.5625zm0 0" fill="#b3e4e8"/><path d="m463.757812 334.351562c0 14.984376-12.148437 27.132813-27.132812 27.132813-14.988281 0-27.136719-12.148437-27.136719-27.132813 0-14.988281 12.148438-27.136718 27.136719-27.136718 14.984375 0 27.132812 12.148437 27.132812 27.136718zm0 0" fill="#eaeae8"/><path d="m350.695312 460.980469c0 14.988281-12.148437 27.136719-27.136718 27.136719-14.984375 0-27.132813-12.148438-27.132813-27.136719 0-14.984375 12.148438-27.132813 27.132813-27.132813 14.988281 0 27.136718 12.148438 27.136718 27.132813zm0 0" fill="#ebebeb"/><path d="m352.769531 419.023438 45.230469-54.261719 13.902344 11.589843-45.230469 54.261719zm0 0" fill="#b3e4e8"/><path d="m458.140625 292.613281 21.113281-27.121093 14.277344 11.113281-21.117188 27.121093zm0 0" fill="#a8d6da"/></svg>